<svg width="1024" height="1024" viewBox="0 0 1024 1024" fill="none" xmlns="http://www.w3.org/2000/svg">
  <rect width="1024" height="1024" rx="248" fill="#F5F5F7"/>
  <rect x="96" y="96" width="832" height="832" rx="212" fill="white"/>
  <rect x="96" y="96" width="832" height="832" rx="212" stroke="#E9E9EE" stroke-width="20"/>
  <rect x="176" y="212" width="672" height="112" rx="56" fill="#D93036"/>
  <rect x="176" y="404" width="416" height="76" rx="38" fill="#2C313A" fill-opacity="0.14"/>
  <rect x="176" y="536" width="500" height="76" rx="38" fill="#2C313A" fill-opacity="0.14"/>
  <path d="M704 456C704 433.909 721.909 416 744 416H776C798.091 416 816 433.909 816 456V568C816 590.091 798.091 608 776 608H744C721.909 608 704 590.091 704 568V456Z" fill="#D93036"/>
  <path d="M258 741C244.745 741 234 751.745 234 765C234 778.255 244.745 789 258 789H575.917L517.459 847.459C508.086 856.832 508.086 872.028 517.459 881.401C526.832 890.774 542.028 890.774 551.401 881.401L650.401 782.401C659.774 773.028 659.774 757.832 650.401 748.459L551.401 649.459C542.028 640.086 526.832 640.086 517.459 649.459C508.086 658.832 508.086 674.028 517.459 683.401L575.058 741H258Z" fill="#D93036"/>
  <circle cx="776" cy="456" r="28" fill="white"/>
  <circle cx="776" cy="568" r="28" fill="white"/>
</svg>
